<svg xmlns="http://www.w3.org/2000/svg" xmlns:xlink="http://www.w3.org/1999/xlink" width="1050" height="203.8798828125" viewBox="0 0 1050 203.8798828125" fill="none"><g  clip-path="url(#clip-path-69_1)"><path     fill="#FFFFFF" fill-opacity="NaN" d="M0 203.88L1050 203.88L1050 0L0 0L0 203.88Z"></path><path d="M28.1193 116.004L17.5859 105.459L41.7064 119.21L28.1193 116.004Z"   fill="#FF6700" ></path><path d="M115.998 203.882L28.1172 116.003L125.918 18.2009C150.183 -6.06696 189.532 -6.06696 213.794 18.2009C238.064 42.4705 238.064 81.8153 213.794 106.083L115.998 203.882Z"   fill="#FF6700" ></path><path d="M106.079 18.202C88.0599 0.182977 61.7341 -4.44913 39.4332 4.28698L72.0605 36.9126C81.7634 46.6199 81.7634 62.3577 72.0605 72.0615C62.3526 81.7721 46.6152 81.7721 36.9084 72.0615L4.28221 39.4375C-4.45857 61.7359 0.178223 88.0652 18.1976 106.084C36.2158 124.098 62.5456 128.736 84.8427 119.999L142.365 177.523L177.516 142.365L119.991 84.8437C128.73 62.5468 124.094 36.221 106.079 18.202Z"   fill="#000000" ></path><path d="M395.466 81.5052L420.813 59.5493L420.813 38.3721L338.074 38.3721L338.074 60.328L385.464 60.328L352.523 88.3799L364.943 104.946C372.616 99.6135 380.654 98.6566 387.892 101.892C395.61 105.345 398.058 111.733 398.054 116.822C398.049 122.321 395.435 127.85 389 131.624C382.607 135.371 374.013 135.536 367.304 132.043C361.604 129.076 358.259 123.46 357.091 118.785L334 130.309C336.895 137.577 341.899 143.715 349.077 148.696C357.467 154.535 367.071 157.456 377.88 157.456C390.755 157.456 401.76 153.494 410.897 145.575C420.039 137.66 424.613 128.18 424.613 117.138C424.613 108.797 421.904 101.404 416.498 94.9452C411.106 88.4875 404.09 84.0008 395.466 81.5052Z"   fill="#000000" ></path><path d="M490.527 130.767C471.91 130.767 456.804 115.744 456.804 97.2258C456.804 78.7139 471.91 63.6916 490.527 63.6916C503.748 63.6916 515.169 71.286 520.692 82.3127L545.065 70.2602C534.996 50.6704 514.359 37.2305 490.527 37.2305C456.783 37.2305 429.424 64.1507 429.424 97.3519C429.424 130.543 456.783 157.443 490.527 157.443C514.433 157.443 535.124 143.931 545.164 124.252L520.692 112.146C515.169 123.166 503.748 130.767 490.527 130.767Z"   fill="#000000" ></path><path d="M899.78 84.5053C887.767 82.4553 869.393 80.7669 869.393 71.7296C869.393 64.823 878.987 60.2707 890.079 60.2707C904.378 60.2707 913.796 68.3377 913.796 75.2174L943.363 75.2174C941.516 51.9481 919.416 37.1191 889.379 37.1191C858.194 37.1191 839.92 50.2648 839.92 74.9836C839.92 101.764 873.213 107.216 887.538 108.81C899.081 110.183 912.77 111.782 912.77 120.671C912.77 127.062 904.405 133.227 892.156 133.227C880.73 133.227 868.232 126.29 868.232 117.414L837.51 117.414C838.662 142.284 857.967 157.337 891.695 157.337C921.726 157.337 944.498 147.839 944.498 118.786C944.498 98.0898 923.573 88.3815 899.78 84.5053Z"   fill="#000000" ></path><path d="M1019.56 38.2607L995.653 112.572L972.191 38.2607L941.423 38.2607L971.31 121.423C975.603 134.982 978.625 144.628 979.499 148.368C980.845 154.148 975.085 160.989 966.724 160.989L954.241 160.989L954.241 186.999L973.282 186.999C994.693 186.999 1003.33 173.455 1015.08 136.855L1049.65 38.2607L1019.56 38.2607Z"   fill="#000000" ></path><path d="M767.347 129.828C748.854 129.828 733.877 114.806 733.877 96.2871C733.877 77.7685 748.854 62.7462 767.347 62.7462C785.82 62.7462 800.794 77.7685 800.794 96.2871C800.794 114.806 785.82 129.828 767.347 129.828ZM800.185 47.5573C790.942 41.1838 779.901 37.1074 768.297 37.1074C734.546 37.1074 707.212 64.0512 707.212 97.244C707.212 130.438 734.546 157.333 768.297 157.333C779.901 157.333 790.835 153.543 800.071 147.425L799.965 155.867L827.818 155.867L827.818 109.167L827.818 86.0222L827.818 38.2644L799.965 38.2644L800.185 47.5573Z"   fill="#000000" ></path><path d="M648.498 62.5941C655.921 62.5941 662.691 64.639 668.303 68.2277L612.84 104.246C612.372 101.991 612.124 99.6446 612.124 97.2213C612.124 77.4247 628.406 62.5941 648.498 62.5941ZM683.161 89.0367L704.562 75.1494C695.524 53.0203 674.184 36.999 648.498 36.999C614.754 36.999 587.395 63.9646 587.395 97.2213C587.395 130.483 614.754 157.45 648.498 157.45C672.496 157.45 692.013 143.245 702.011 123.413L680.257 112.551C674.325 124.416 662.828 131.857 648.498 131.857C640.514 131.857 633.151 129.484 627.151 125.418L683.161 89.0367Z"   fill="#000000" ></path></g><defs><clipPath id="clip-path-69_1"><path d="M0 203.88L1050 203.88L1050 0L0 0L0 203.88Z" fill="white"/></clipPath></defs></svg>